<svg width="73" height="11" viewBox="0 0 73 11" fill="none" xmlns="http://www.w3.org/2000/svg">
<path d="M4.63834 10.1371L-0.000153244 5.49857L4.63834 0.860073L5.53323 1.74502L2.42598 4.85226H10.2314V6.14488H2.42598L5.53323 9.24715L4.63834 10.1371ZM16.6309 10.5895V0.407659H20.2601C21.0523 0.407659 21.7085 0.551835 22.2289 0.840187C22.7492 1.12854 23.1387 1.52295 23.3972 2.02343C23.6557 2.52059 23.785 3.08072 23.785 3.70382C23.785 4.33024 23.6541 4.89369 23.3922 5.39417C23.1337 5.89132 22.7426 6.28574 22.2189 6.5774C21.6986 6.86576 21.044 7.00993 20.2551 7.00993H17.7594V5.70738H20.1159C20.6164 5.70738 21.0224 5.6212 21.334 5.44885C21.6455 5.27319 21.8742 5.03455 22.0201 4.73294C22.1659 4.43133 22.2388 4.08829 22.2388 3.70382C22.2388 3.31935 22.1659 2.97797 22.0201 2.67968C21.8742 2.38138 21.6439 2.14772 21.329 1.97868C21.0175 1.80965 20.6065 1.72513 20.0961 1.72513H18.1671V10.5895H16.6309ZM25.3826 10.5895V2.95311H26.8194V4.16618H26.8989C27.0382 3.7552 27.2834 3.43204 27.6347 3.19672C27.9894 2.95809 28.3904 2.83877 28.8379 2.83877C28.9307 2.83877 29.04 2.84208 29.166 2.84871C29.2953 2.85534 29.3963 2.86362 29.4693 2.87357V4.29544C29.4096 4.27887 29.3035 4.26064 29.1511 4.24076C28.9986 4.21755 28.8462 4.20595 28.6937 4.20595C28.3424 4.20595 28.0292 4.28053 27.7541 4.42968C27.4823 4.57551 27.2668 4.77934 27.1078 5.04118C26.9487 5.2997 26.8691 5.59469 26.8691 5.92613V10.5895H25.3826ZM33.6894 10.7436C32.937 10.7436 32.2891 10.5828 31.7455 10.2614C31.2053 9.93654 30.7877 9.48081 30.4927 8.89417C30.201 8.3042 30.0552 7.61315 30.0552 6.82101C30.0552 6.03881 30.201 5.34942 30.4927 4.75283C30.7877 4.15624 31.1986 3.69057 31.7256 3.35581C32.2559 3.02106 32.8757 2.85368 33.585 2.85368C34.0159 2.85368 34.4335 2.92494 34.8379 3.06746C35.2422 3.20998 35.6051 3.4337 35.9266 3.73863C36.2481 4.04355 36.5017 4.43962 36.6873 4.92684C36.8729 5.41074 36.9657 5.99904 36.9657 6.69175V7.21874H30.8954V6.1051H35.509C35.509 5.714 35.4295 5.36765 35.2704 5.06604C35.1113 4.76112 34.8876 4.52082 34.5992 4.34516C34.3142 4.1695 33.9794 4.08167 33.595 4.08167C33.1773 4.08167 32.8128 4.18441 32.5012 4.3899C32.193 4.59208 31.9543 4.85723 31.7853 5.18536C31.6196 5.51017 31.5367 5.86315 31.5367 6.24431V7.11434C31.5367 7.62475 31.6262 8.05894 31.8052 8.41689C31.9875 8.77485 32.241 9.04828 32.5658 9.2372C32.8906 9.42281 33.2701 9.51561 33.7043 9.51561C33.9861 9.51561 34.2429 9.47584 34.4749 9.3963C34.7069 9.31344 34.9075 9.1908 35.0765 9.0284C35.2455 8.86599 35.3748 8.66547 35.4643 8.42684L36.8712 8.68039C36.7585 9.09469 36.5564 9.45761 36.2647 9.76917C35.9763 10.0774 35.6134 10.3177 35.1759 10.49C34.7417 10.6591 34.2462 10.7436 33.6894 10.7436ZM44.8449 2.95311L42.0758 10.5895H40.4849L37.7107 2.95311H39.3066L41.2405 8.82953H41.3201L43.2491 2.95311H44.8449ZM46.158 10.5895V2.95311H47.6445V10.5895H46.158ZM46.9087 1.77485C46.6501 1.77485 46.4281 1.68867 46.2425 1.51632C46.0602 1.34066 45.969 1.13185 45.969 0.889903C45.969 0.644638 46.0602 0.435831 46.2425 0.263483C46.4281 0.08782 46.6501 -1.13249e-05 46.9087 -1.13249e-05C47.1672 -1.13249e-05 47.3876 0.08782 47.5699 0.263483C47.7555 0.435831 47.8483 0.644638 47.8483 0.889903C47.8483 1.13185 47.7555 1.34066 47.5699 1.51632C47.3876 1.68867 47.1672 1.77485 46.9087 1.77485ZM52.7769 10.7436C52.061 10.7436 51.4362 10.5795 50.9026 10.2514C50.369 9.92328 49.9547 9.46424 49.6597 8.87428C49.3647 8.28432 49.2172 7.59492 49.2172 6.8061C49.2172 6.01396 49.3647 5.32125 49.6597 4.72797C49.9547 4.1347 50.369 3.67399 50.9026 3.34587C51.4362 3.01774 52.061 2.85368 52.7769 2.85368C53.4928 2.85368 54.1176 3.01774 54.6512 3.34587C55.1848 3.67399 55.5991 4.1347 55.8941 4.72797C56.1891 5.32125 56.3366 6.01396 56.3366 6.8061C56.3366 7.59492 56.1891 8.28432 55.8941 8.87428C55.5991 9.46424 55.1848 9.92328 54.6512 10.2514C54.1176 10.5795 53.4928 10.7436 52.7769 10.7436ZM52.7819 9.49573C53.2459 9.49573 53.6304 9.37309 53.9353 9.12783C54.2402 8.88256 54.4656 8.5561 54.6114 8.14843C54.7606 7.74076 54.8351 7.29166 54.8351 6.80113C54.8351 6.31391 54.7606 5.86647 54.6114 5.4588C54.4656 5.04781 54.2402 4.71803 53.9353 4.46945C53.6304 4.22087 53.2459 4.09658 52.7819 4.09658C52.3145 4.09658 51.9268 4.22087 51.6185 4.46945C51.3136 4.71803 51.0866 5.04781 50.9374 5.4588C50.7916 5.86647 50.7187 6.31391 50.7187 6.80113C50.7187 7.29166 50.7916 7.74076 50.9374 8.14843C51.0866 8.5561 51.3136 8.88256 51.6185 9.12783C51.9268 9.37309 52.3145 9.49573 52.7819 9.49573ZM62.7492 7.42257V2.95311H64.2407V10.5895H62.779V9.26703H62.6995C62.5238 9.6747 62.2421 10.0144 61.8543 10.2862C61.4698 10.5547 60.9909 10.6889 60.4175 10.6889C59.927 10.6889 59.4928 10.5812 59.115 10.3658C58.7404 10.147 58.4454 9.82385 58.23 9.3963C58.0179 8.96874 57.9118 8.44009 57.9118 7.81036V2.95311H59.3983V7.63138C59.3983 8.15174 59.5425 8.56604 59.8309 8.87428C60.1192 9.18252 60.4937 9.33664 60.9544 9.33664C61.2329 9.33664 61.5096 9.26703 61.7847 9.12783C62.0631 8.98863 62.2935 8.77816 62.4758 8.49644C62.6614 8.21471 62.7525 7.85676 62.7492 7.42257ZM71.8763 4.81746L70.529 5.0561C70.4727 4.88375 70.3832 4.71969 70.2605 4.56391C70.1412 4.40813 69.9788 4.28053 69.7733 4.1811C69.5678 4.08166 69.311 4.03195 69.0027 4.03195C68.5818 4.03195 68.2305 4.12641 67.9488 4.31533C67.667 4.50094 67.5262 4.74123 67.5262 5.03621C67.5262 5.29142 67.6206 5.49691 67.8095 5.65269C67.9985 5.80846 68.3034 5.93607 68.7243 6.0355L69.9374 6.31391C70.64 6.47631 71.1637 6.72655 71.5084 7.06462C71.8531 7.40269 72.0255 7.84184 72.0255 8.38209C72.0255 8.83948 71.8929 9.24715 71.6277 9.6051C71.3659 9.95974 70.9997 10.2382 70.529 10.4403C70.0617 10.6425 69.5198 10.7436 68.9033 10.7436C68.0482 10.7436 67.3505 10.5613 66.8103 10.1967C66.27 9.82882 65.9386 9.30681 65.8159 8.63067L67.2527 8.41192C67.3422 8.78645 67.5262 9.06983 67.8046 9.26206C68.083 9.45098 68.4459 9.54544 68.8934 9.54544C69.3806 9.54544 69.77 9.44435 70.0617 9.24218C70.3533 9.03668 70.4992 8.78645 70.4992 8.49147C70.4992 8.25283 70.4097 8.05231 70.2307 7.8899C70.055 7.7275 69.7849 7.60487 69.4203 7.52201L68.1277 7.23863C67.4151 7.07622 66.8881 6.8177 66.5468 6.46306C66.2087 6.10842 66.0397 5.65932 66.0397 5.11576C66.0397 4.665 66.1656 4.27059 66.4175 3.93252C66.6694 3.59445 67.0174 3.33095 67.4615 3.14203C67.9057 2.9498 68.4144 2.85368 68.9878 2.85368C69.8131 2.85368 70.4627 3.03266 70.9367 3.39061C71.4106 3.74525 71.7238 4.22087 71.8763 4.81746Z" fill="#0D0D0D"/>
</svg>
