<svg width="46" height="11" viewBox="0 0 46 11" fill="none" xmlns="http://www.w3.org/2000/svg">
<path d="M8.21803 5.24521e-06V10.1818H6.8061L1.63068 2.71449H1.53622V10.1818H-6.21378e-06V5.24521e-06H1.42187L6.60227 7.47728H6.69673V5.24521e-06H8.21803ZM13.5469 10.3359C12.7945 10.3359 12.1465 10.1752 11.603 9.8537C11.0627 9.52889 10.6451 9.07316 10.3501 8.48651C10.0585 7.89655 9.91262 7.2055 9.91262 6.41336C9.91262 5.63116 10.0585 4.94177 10.3501 4.34518C10.6451 3.74858 11.0561 3.28291 11.5831 2.94816C12.1134 2.61341 12.7332 2.44603 13.4425 2.44603C13.8733 2.44603 14.2909 2.51729 14.6953 2.65981C15.0996 2.80233 15.4626 3.02605 15.7841 3.33097C16.1056 3.6359 16.3591 4.03197 16.5447 4.51918C16.7303 5.00308 16.8231 5.59139 16.8231 6.2841V6.81109H10.7528V5.69745H15.3665C15.3665 5.30635 15.2869 4.96 15.1278 4.65839C14.9687 4.35346 14.745 4.11317 14.4567 3.93751C14.1716 3.76184 13.8369 3.67401 13.4524 3.67401C13.0348 3.67401 12.6702 3.77676 12.3586 3.98225C12.0504 4.18443 11.8118 4.44958 11.6427 4.7777C11.477 5.10251 11.3942 5.4555 11.3942 5.83665V6.70668C11.3942 7.2171 11.4836 7.65128 11.6626 8.00924C11.8449 8.36719 12.0985 8.64063 12.4233 8.82955C12.7481 9.01516 13.1276 9.10796 13.5618 9.10796C13.8435 9.10796 14.1004 9.06819 14.3324 8.98864C14.5644 8.90578 14.7649 8.78315 14.9339 8.62074C15.103 8.45834 15.2322 8.25782 15.3217 8.01918L16.7287 8.27273C16.616 8.68703 16.4138 9.04996 16.1221 9.36151C15.8338 9.66975 15.4709 9.91004 15.0334 10.0824C14.5992 10.2514 14.1037 10.3359 13.5469 10.3359ZM19.384 2.54546L21.0694 5.51847L22.7697 2.54546H24.3954L22.014 6.36364L24.4153 10.1818H22.7896L21.0694 7.32813L19.3542 10.1818H17.7235L20.0999 6.36364L17.7533 2.54546H19.384ZM29.4023 2.54546V3.73864H25.2311V2.54546H29.4023ZM26.3497 0.715914H27.8362V7.93964C27.8362 8.22799 27.8793 8.44508 27.9655 8.59091C28.0517 8.73343 28.1627 8.83121 28.2986 8.88424C28.4378 8.93395 28.5886 8.95881 28.751 8.95881C28.8703 8.95881 28.9747 8.95053 29.0642 8.93395C29.1537 8.91738 29.2233 8.90412 29.273 8.89418L29.5415 10.1222C29.4553 10.1553 29.3327 10.1885 29.1736 10.2216C29.0145 10.2581 28.8156 10.2779 28.577 10.2813C28.1859 10.2879 27.8213 10.2183 27.4833 10.0724C27.1452 9.92662 26.8718 9.70124 26.6629 9.39631C26.4541 9.09139 26.3497 8.70858 26.3497 8.24787V0.715914ZM40.9275 10.3658L40.0326 9.48083L43.1398 6.37358H35.3344V5.08097H43.1398L40.0326 1.9787L40.9275 1.08878L45.566 5.72728L40.9275 10.3658Z" fill="#0D0D0D"/>
</svg>
